<svg height="256px" width="256px" version="1.1" id="Layer_1" xmlns="http://www.w3.org/2000/svg" xmlns:xlink="http://www.w3.org/1999/xlink" viewBox="0 0 511.999 511.999" xml:space="preserve" fill="#000000"><g id="SVGRepo_bgCarrier" stroke-width="0"></g><g id="SVGRepo_tracerCarrier" stroke-linecap="round" stroke-linejoin="round"></g><g id="SVGRepo_iconCarrier"> <path style="fill:#894BA2;" d="M240.683,394.483c-1.336-1.696-3.293-2.791-5.439-3.044c-32.486-3.826-60.886-22.131-77.922-50.222 c-1.121-1.848-2.931-3.175-5.032-3.686c-2.099-0.514-4.318-0.168-6.164,0.958l-88.598,54.008c-1.845,1.124-3.166,2.935-3.674,5.034 c-0.509,2.1-0.161,4.315,0.965,6.157c17.542,28.717,41.738,53.594,69.969,71.939c28.869,18.761,62.191,30.797,96.363,34.807 c0.322,0.038,0.642,0.056,0.959,0.056c4.066,0,7.581-3.044,8.071-7.18l12.194-102.829 C242.628,398.335,242.02,396.178,240.683,394.483z"></path> <path style="fill:#763794;" d="M235.244,391.439c-32.486-3.826-60.886-22.131-77.922-50.222c-1.121-1.848-2.931-3.175-5.032-3.686 c-2.099-0.514-4.318-0.168-6.164,0.958l-24.612,15.003c21.586,31.804,58.036,52.701,99.371,52.701 c7.174,0,14.201-0.632,21.029-1.839l0.459-3.873c0.254-2.145-0.355-4.303-1.693-5.998 C239.346,392.787,237.388,391.692,235.244,391.439z"></path> <path style="fill:#3FC8F2;" d="M247.746,60.151c-124.574,0-225.924,101.35-225.924,225.924c0,41.605,11.41,82.275,32.997,117.612 c1.534,2.511,4.21,3.897,6.952,3.897c1.443,0,2.906-0.384,4.228-1.19l88.598-54.008c3.832-2.335,5.05-7.332,2.724-11.169 c-9.974-16.447-15.246-35.365-15.246-54.706c0-58.265,47.403-105.669,105.67-105.669c4.496,0,8.139-3.644,8.139-8.139V68.29 C255.884,63.795,252.242,60.151,247.746,60.151z"></path> <path style="fill:#F77935;" d="M438.188,164.484c-2.419-3.783-7.445-4.89-11.236-2.474l-87.85,56.084 c-1.824,1.164-3.109,3.008-3.571,5.123c-0.462,2.114-0.063,4.325,1.109,6.145c10.973,17.032,16.773,36.793,16.773,57.147 c0,58.267-47.403,105.669-105.669,105.669c-4.131,0-8.337-0.249-12.502-0.74c-4.45-0.517-8.504,2.662-9.034,7.124l-12.194,102.829 c-0.254,2.145,0.355,4.304,1.694,6c1.337,1.696,3.296,2.79,5.441,3.042c8.858,1.04,17.806,1.566,26.597,1.566 c124.575,0,225.923-101.349,225.923-225.924C473.67,242.812,461.4,200.767,438.188,164.484z"></path> <path style="fill:#D9510D;" d="M438.188,164.484c-2.419-3.783-7.445-4.89-11.236-2.474l-23.368,14.92 c17.915,32.383,28.126,69.621,28.126,109.25c0,117.343-89.421,213.791-203.836,224.942c6.643,0.583,13.302,0.878,19.872,0.878 c124.575,0,225.923-101.349,225.923-225.924C473.67,242.812,461.4,200.767,438.188,164.484z"></path> <path style="fill:#0DAACE;" d="M220.886,166.166c-66.281,0-120.013,53.732-120.013,120.013c0,30.837,11.635,58.955,30.75,80.212 l22.976-14.006c3.832-2.335,5.05-7.332,2.724-11.169c-9.973-16.447-15.246-35.365-15.246-54.706 c0-58.265,47.403-105.669,105.67-105.669c4.496,0,8.139-3.644,8.139-8.139v-1.346C244.812,167.986,233.062,166.166,220.886,166.166z "></path> <path style="fill:#FFDB56;" d="M488.894,132.112c-25.4-39.703-60.544-72.844-101.633-95.842C344.865,12.542,296.62,0,247.746,0 c-4.496,0-8.139,3.644-8.139,8.139v277.937c0,2.972,1.62,5.709,4.228,7.137c1.221,0.67,2.567,1.002,3.911,1.002 c1.525,0,3.048-0.429,4.38-1.278l234.292-149.577c1.821-1.162,3.103-3,3.568-5.11C490.451,136.139,490.058,133.932,488.894,132.112z "></path> <path style="fill:#FBA806;" d="M488.894,132.112c-25.4-39.703-60.544-72.844-101.633-95.842C344.865,12.542,296.62,0,247.746,0 c-3.318,0-6.167,1.988-7.434,4.836c30.529,5.671,60.033,16.261,87.144,31.434c41.089,22.997,76.233,56.139,101.633,95.842 c1.164,1.82,1.558,4.027,1.093,6.136c-0.464,2.11-1.747,3.948-3.568,5.11L239.607,262.747v23.328c0,2.972,1.62,5.709,4.228,7.137 c1.221,0.67,2.567,1.002,3.911,1.002c1.525,0,3.048-0.429,4.38-1.278l234.292-149.577c1.821-1.162,3.103-3,3.568-5.11 C490.451,136.139,490.058,133.932,488.894,132.112z"></path> <path style="fill:#D9510D;" d="M293.43,381.783c-13.834,6.661-29.331,10.396-45.684,10.396c-4.131,0-8.337-0.248-12.502-0.74 c-4.45-0.517-8.504,2.662-9.034,7.124l-0.894,7.538C250.867,405.175,274.377,396.263,293.43,381.783z"></path> </g></svg>